<?xml version="1.0" encoding="utf-8"?>
<!DOCTYPE svg  PUBLIC '-//W3C//DTD SVG 1.0//EN'  'http://www.w3.org/TR/2001/REC-SVG-20010904/DTD/svg10.dtd'>
<svg  version="1.1" xmlns="http://www.w3.org/2000/svg" xmlns:xlink="http://www.w3.org/1999/xlink"
	 width="80" height="80" viewBox="0.89453 2 223 223" enable-background="new 0.89453 2 223 223" xml:space="preserve">

<path fill="#6D6E6D" d="M144.02832,53.2915H29.50879c-15.65576,0-28.34668,12.69092-28.34668,28.34668v10.77148l11.90576,11.90576
	V81.63818c0-9.08008,7.36084-16.44092,16.44092-16.44092h114.51953c9.08008,0,16.44141,7.36084,16.44141,16.44092v114.51807
	c0,9.08008-7.36133,16.44141-16.44141,16.44141h-22.67676l11.90625,11.90625h10.77051
	c15.65527,0,28.34668-12.69141,28.34668-28.34668V81.63818C172.375,65.98242,159.68359,53.2915,144.02832,53.2915z"/>
<path fill="#6D6E6D" d="M29.50879,212.59766c-9.08008,0-16.44092-7.36133-16.44092-16.44141v-68.03027L1.16211,116.2207v79.93652
	c0,15.65527,12.69092,28.34668,28.34668,28.34668h79.93848l-11.90527-11.90625H29.50879z"/>
<path fill="#719E0B" d="M195.05176,2.26758H80.53223c-15.65576,0-28.34668,12.69092-28.34668,28.34668v10.77148L64.09131,53.2915
	V30.61426c0-9.08008,7.36084-16.44092,16.44092-16.44092h114.51953c9.08008,0,16.44141,7.36084,16.44141,16.44092v114.51855
	c0,9.08008-7.36133,16.44141-16.44141,16.44141H172.375l11.90625,11.90625h10.77051c15.65527,0,28.34668-12.69141,28.34668-28.34668
	V30.61426C223.39844,14.9585,210.70703,2.26758,195.05176,2.26758z"/>
<path fill="#719E0B" d="M80.53223,161.57422c-9.08008,0-16.44092-7.36133-16.44092-16.44141V77.10254L52.18555,65.19678v79.93701
	c0,15.65527,12.69092,28.34668,28.34668,28.34668h79.93848l-11.90527-11.90625H80.53223z"/>
</svg>
